<?xml version="1.0" encoding="utf-8"?>
<!-- Generator: Adobe Illustrator 25.2.3, SVG Export Plug-In . SVG Version: 6.00 Build 0)  -->
<svg version="1.1" id="Layer_1" xmlns="http://www.w3.org/2000/svg" xmlns:xlink="http://www.w3.org/1999/xlink" x="0px" y="0px"
	 viewBox="0 0 79.9 20" style="enable-background:new 0 0 79.9 20;" xml:space="preserve">
<style type="text/css">
	.st0{fill:#FAF9F8;}
	.st1{fill:#24C4A1;}
	.st2{fill:#244583;}
	.st3{fill:#FFFFFF;}
</style>
<path class="st0" d="M0,4.8C0,2.2,2.2,0,5,0h69.9c2.8,0,5,2.1,5,4.8v10.4c0,2.6-2.2,4.8-5,4.8H5c-2.8,0-5-2.1-5-4.8
	C0,15.2,0,4.8,0,4.8z"/>
<path class="st1" d="M0,4.8C0,2.2,2.2,0,5,0h15.9v20H5c-2.8,0-5-2.1-5-4.8C0,15.2,0,4.8,0,4.8z"/>
<path class="st2" d="M28.7,10.4c0.5,0,0.9-0.4,0.9-0.9s-0.4-0.9-0.9-0.9S27.8,9,27.8,9.5C27.8,9.9,28.2,10.4,28.7,10.4z M27.9,17
	h1.5v-5.8h-1.5V17z M38.1,17h1.5v-4.2c0-1.2-0.6-1.8-1.7-1.8c-0.9,0-1.7,0.5-2,1.1c-0.2-0.7-0.8-1.1-1.6-1.1c-0.9,0-1.7,0.6-1.9,0.9
	v-0.8H31V17h1.5v-3.9c0.2-0.3,0.7-0.7,1.2-0.7c0.6,0,0.9,0.4,0.9,0.9V17h1.5v-3.9c0.2-0.3,0.7-0.7,1.2-0.7c0.6,0,0.9,0.4,0.9,0.9V17
	H38.1z M48.4,17h1.5v-4.2c0-1.2-0.6-1.8-1.7-1.8c-0.9,0-1.7,0.5-2,1.1C46,11.4,45.4,11,44.6,11c-0.9,0-1.7,0.6-1.9,0.9v-0.8h-1.5V17
	h1.5v-3.9c0.2-0.3,0.7-0.7,1.2-0.7c0.6,0,0.9,0.4,0.9,0.9V17h1.5v-3.9c0.2-0.3,0.7-0.7,1.2-0.7c0.6,0,0.9,0.4,0.9,0.9
	C48.4,13.3,48.4,17,48.4,17z M55.3,17h1.5v-5.8h-1.5v3.9c-0.3,0.3-0.7,0.7-1.3,0.7s-1.1-0.3-1.1-1.1v-3.5h-1.5v4.1
	c0,1.1,0.6,1.8,1.9,1.8c0.9,0,1.6-0.4,2-0.9C55.3,16.2,55.3,17,55.3,17z M62.3,17h1.5V9h-1.5v3c-0.5-0.6-1.1-0.9-1.8-0.9
	c-1.5,0-2.6,1.2-2.6,3c0,1.9,1.1,3,2.6,3c0.7,0,1.3-0.3,1.8-0.9V17z M62.3,15.1c-0.3,0.4-0.8,0.7-1.3,0.7c-0.9,0-1.5-0.7-1.5-1.7
	s0.6-1.7,1.5-1.7c0.5,0,1.1,0.3,1.3,0.7V15.1z M65.4,17h1.5v-0.7c0.5,0.6,1.1,0.9,1.8,0.9c1.5,0,2.6-1.1,2.6-3s-1.1-3-2.6-3
	c-0.7,0-1.3,0.3-1.8,0.9V9h-1.5V17z M66.9,15.1V13c0.3-0.4,0.8-0.7,1.3-0.7c0.9,0,1.5,0.7,1.5,1.7s-0.6,1.7-1.5,1.7
	C67.7,15.8,67.2,15.5,66.9,15.1z"/>
<g>
	<path class="st2" d="M27.4,6.1c0.3,0.3,0.7,0.6,1.3,0.6c0.7,0,0.9-0.4,0.9-0.7c0-0.5-0.5-0.6-1-0.8C27.9,5,27.2,4.8,27.2,4
		c0-0.7,0.6-1.1,1.4-1.1c0.6,0,1.1,0.2,1.4,0.6l-0.3,0.4c-0.3-0.3-0.7-0.5-1.2-0.5c-0.5,0-0.8,0.3-0.8,0.6c0,0.4,0.5,0.5,1,0.7
		c0.7,0.2,1.4,0.4,1.4,1.2c0,0.6-0.4,1.2-1.5,1.2c-0.7,0-1.2-0.3-1.5-0.6L27.4,6.1z"/>
	<path class="st2" d="M32.1,4c0.9,0,1.4,0.7,1.4,1.6v0.1h-2.3c0,0.5,0.4,1,1,1c0.3,0,0.7-0.1,0.9-0.4l0.2,0.3
		c-0.3,0.3-0.7,0.4-1.2,0.4c-0.9,0-1.5-0.6-1.5-1.5C30.7,4.7,31.3,4,32.1,4z M31.2,5.4h1.9c0-0.4-0.3-1-1-1
		C31.5,4.4,31.2,4.9,31.2,5.4z"/>
	<path class="st2" d="M35.5,4c0.5,0,0.8,0.2,1.1,0.5l-0.3,0.3c-0.2-0.3-0.4-0.4-0.7-0.4c-0.6,0-1,0.5-1,1.1s0.4,1.1,1,1.1
		c0.3,0,0.5-0.1,0.7-0.4l0.3,0.3c-0.2,0.3-0.5,0.5-1.1,0.5c-0.9,0-1.4-0.7-1.4-1.5C34.1,4.7,34.6,4,35.5,4z"/>
	<path class="st2" d="M39.1,6.6c-0.2,0.3-0.6,0.5-1,0.5c-0.6,0-0.9-0.3-0.9-0.9v-2h0.4V6c0,0.5,0.3,0.7,0.6,0.7
		c0.4,0,0.7-0.2,0.9-0.4V4.1h0.5V7h-0.5V6.6z"/>
	<path class="st2" d="M40.5,4.1h0.4v0.5c0.2-0.3,0.6-0.5,1-0.5v0.5c-0.1,0-0.1,0-0.2,0c-0.3,0-0.7,0.2-0.8,0.5V7h-0.4V4.1z"/>
	<path class="st2" d="M43.7,4c0.9,0,1.4,0.7,1.4,1.6v0.1h-2.3c0,0.5,0.4,1,1,1c0.3,0,0.7-0.1,0.9-0.4l0.2,0.3
		c-0.3,0.3-0.7,0.4-1.2,0.4c-0.9,0-1.5-0.6-1.5-1.5C42.3,4.7,42.9,4,43.7,4z M42.8,5.4h1.9c0-0.4-0.3-1-1-1
		C43.1,4.4,42.8,4.9,42.8,5.4z"/>
	<path class="st2" d="M48,6.6c-0.2,0.3-0.6,0.5-1,0.5c-0.8,0-1.3-0.6-1.3-1.5C45.7,4.6,46.2,4,47,4c0.4,0,0.7,0.2,1,0.5V3h0.4v4H48
		V6.6z M48,4.9c-0.2-0.3-0.5-0.5-0.9-0.5c-0.6,0-0.9,0.5-0.9,1.1s0.3,1.1,0.9,1.1c0.4,0,0.7-0.2,0.9-0.5V4.9z"/>
	<path class="st2" d="M50.9,3h0.4v1.5c0.2-0.3,0.6-0.5,1-0.5c0.8,0,1.3,0.6,1.3,1.5c0,0.9-0.5,1.5-1.3,1.5c-0.4,0-0.8-0.2-1-0.5V7
		h-0.4V3z M52.2,6.7c0.6,0,0.9-0.5,0.9-1.1s-0.3-1.1-0.9-1.1c-0.4,0-0.7,0.2-0.9,0.5v1.3C51.5,6.5,51.8,6.7,52.2,6.7z"/>
	<path class="st2" d="M54.5,7.8c0.2,0,0.3-0.1,0.4-0.3L55.1,7l-1.2-2.9h0.5l1,2.4l1-2.4h0.5l-1.5,3.5c-0.2,0.4-0.5,0.6-0.9,0.6
		c-0.1,0-0.2,0-0.3,0l0.1-0.4C54.3,7.8,54.4,7.8,54.5,7.8z"/>
</g>
<desc  id="desc852">Created with Sketch.</desc>
<g>
	<path class="st3" d="M10.9,2.8C7,2.8,3.8,6.1,3.8,10s3.2,7.2,7.2,7.2c3.9,0,7.1-3.2,7.2-7.2C18.1,6.1,14.9,2.8,10.9,2.8z
		 M10.9,16.8c-3.8,0-6.8-3.1-6.8-6.8s3.1-6.8,6.8-6.8c3.8,0,6.8,3.1,6.8,6.8C17.7,13.8,14.7,16.8,10.9,16.8z"/>
	<path class="st3" d="M5.1,8c0.1,0,0.1,0,0.1-0.1c0.2-0.7,0.6-1.3,1.1-1.8c0.1-0.1,0-0.2,0-0.2s-0.2,0-0.2,0
		C5.5,6.5,5.2,7.1,4.9,7.8c0,0,0,0.1,0,0.1C5,8,5,8,5.1,8z"/>
	<path class="st3" d="M4.7,9.9c0,0-0.1,0-0.1,0s0,0.1,0,0.1c0,0.7,0.1,1.5,0.4,2.2c0,0.1,0.1,0.1,0.1,0.1v0c0,0,0,0,0.1,0
		c0.1,0,0.1-0.1,0.1-0.2C5,11.4,4.9,10.7,4.9,10C4.9,9.9,4.8,9.9,4.7,9.9z"/>
	<path class="st3" d="M11.9,4c0.7,0.1,1.4,0.4,2,0.7c0,0,0.1,0,0.1,0v0c0.1,0,0.1,0,0.2-0.1c0-0.1,0-0.1-0.1-0.2
		c-0.6-0.4-1.3-0.6-2.1-0.7c-0.1,0-0.2,0-0.2,0.1C11.8,3.9,11.9,4,11.9,4z"/>
	<path class="st3" d="M6.3,13.9c-0.1-0.1-0.2-0.1-0.2,0C6,13.9,6,14,6,14.1c0.5,0.6,1,1,1.7,1.4c0,0,0.1,0,0.1,0
		c0.1,0,0.1,0,0.2-0.1s0-0.1-0.1-0.2C7.3,14.9,6.7,14.4,6.3,13.9z"/>
	<path class="st3" d="M7.8,4.8C7.8,4.8,7.8,4.8,7.8,4.8C8.5,4.4,9.1,4.2,9.8,4C9.9,4,9.9,4,10,3.9s0-0.1,0-0.2c0,0-0.1-0.1-0.1-0.1
		C9.1,3.9,8.4,4.1,7.7,4.5c-0.1,0-0.1,0.1-0.1,0.2C7.7,4.7,7.7,4.8,7.8,4.8z"/>
	<path class="st3" d="M17.1,9.8C17,9.8,17,9.9,17,10v0c0,0.7-0.1,1.4-0.4,2.1c0,0,0,0.1,0,0.1c0,0,0,0.1,0.1,0.1c0,0,0,0,0.1,0v0
		c0.1,0,0.1,0,0.1-0.1c0.3-0.7,0.4-1.4,0.4-2.2v0C17.3,9.9,17.2,9.8,17.1,9.8z"/>
	<path class="st3" d="M12,16c-0.7,0.1-1.4,0.1-2.1,0c-0.1,0-0.1,0-0.2,0.1c0,0,0,0.1,0,0.2s0.1,0.1,0.1,0.1c0.4,0.1,0.7,0.1,1.1,0.1
		c0.4,0,0.7,0,1.1-0.1c0.1,0,0.1-0.1,0.1-0.2S12,15.9,12,16z"/>
	<path class="st3" d="M16.7,8C16.8,8,16.8,8,16.7,8c0.1,0,0.2-0.1,0.1-0.2c-0.3-0.7-0.6-1.3-1.1-1.9c0,0-0.1-0.1-0.1-0.1
		c-0.1,0-0.1,0-0.1,0.1s0,0.1,0,0.2c0.5,0.5,0.8,1.2,1.1,1.8C16.6,8,16.7,8,16.7,8z"/>
	<path class="st3" d="M15.5,13.9c-0.5,0.5-1,1-1.6,1.4c-0.1,0-0.1,0.1-0.1,0.2s0.1,0.1,0.2,0.1v0c0,0,0.1,0,0.1,0
		c0.6-0.4,1.2-0.9,1.7-1.4c0,0,0-0.1,0-0.2c0-0.1-0.1-0.1-0.1-0.1C15.6,13.8,15.6,13.8,15.5,13.9z"/>
	<path class="st3" d="M10.9,4.5c-3.1,0-5.5,2.5-5.5,5.5c0,3.1,2.5,5.5,5.5,5.5c3.1,0,5.5-2.5,5.5-5.5C16.4,6.9,14,4.5,10.9,4.5z
		 M10.9,15.2c-2.9,0-5.2-2.3-5.2-5.2S8,4.8,10.9,4.8c2.9,0,5.2,2.3,5.2,5.2C16.1,12.9,13.8,15.2,10.9,15.2z"/>
	<path class="st3" d="M12.9,6.8c-0.6-0.2-1.2,0-1.7,0.4L9.8,8.7c0,0-0.1,0.1-0.1,0.1v0c0,0-0.1,0.1-0.1,0.1l-1.4,1.4
		c-0.5,0.5-0.6,1.2-0.4,1.9c0.3,0.6,0.9,1.1,1.6,1.1c0.5,0,0.9-0.2,1.2-0.5l1.4-1.4c0,0,0.1-0.1,0.1-0.1v0c0,0,0,0,0,0
		c0,0,0.1-0.1,0.1-0.1l1.4-1.4c0.4-0.4,0.6-1.1,0.4-1.7C13.9,7.5,13.5,7,12.9,6.8z M9.8,11.1C9.8,11.1,9.8,11.1,9.8,11.1
		c0.2,0.2,0.3,0.3,0.5,0.4c0,0,0,0,0.1,0l-0.5,0.5c-0.2,0.2-0.6,0.2-0.9,0c-0.2-0.2-0.2-0.6,0-0.9l0.5-0.5c0,0,0,0,0,0.1
		C9.6,10.8,9.6,10.9,9.8,11.1z M10.6,10.3c-0.1-0.1-0.1-0.2-0.2-0.3c0,0,0,0,0,0c0,0,0-0.1,0-0.1c0,0,0-0.1,0-0.1c0,0,0-0.1,0-0.1
		c0,0,0,0,0-0.1c0.1,0,0.1-0.1,0.2-0.1c0,0,0.1,0,0.1,0c0.1,0,0.2,0,0.3,0.1c0,0,0,0,0,0c0.1,0.1,0.2,0.1,0.2,0.2c0,0,0,0,0,0
		c0.1,0.1,0.1,0.2,0.1,0.3c0,0,0,0,0,0c0,0.1,0,0.2-0.1,0.3c0,0-0.1,0-0.1,0c0,0-0.1,0-0.1,0c0,0-0.1,0-0.1,0c0,0-0.1,0-0.1,0
		c0,0,0,0-0.1,0C10.8,10.5,10.7,10.4,10.6,10.3z M12.2,7.9c0.1,0,0.1,0,0.2,0c0,0,0,0,0,0c0.2,0,0.3,0.1,0.4,0.2
		C13,8.2,13,8.3,13,8.5c0,0,0,0,0,0c0,0.1,0,0.1,0,0.2c0,0.1-0.1,0.2-0.1,0.2l-0.5,0.5c0,0,0,0,0-0.1C12.3,9.2,12.2,9,12,8.9
		c0,0,0,0,0,0c-0.1-0.1-0.3-0.2-0.5-0.3c0,0,0,0,0,0L12,8.1C12,8,12.1,7.9,12.2,7.9z M10.4,12.5c-0.6,0.5-1.4,0.5-2,0
		c-0.5-0.5-0.6-1.4,0-2l0.9-0.9c0,0.1,0,0.2,0,0.4c0,0,0,0.1,0,0.1c0,0.1,0,0.1,0,0.2l-0.6,0.6c-0.1,0.1-0.1,0.2-0.2,0.3
		c0,0,0,0.1,0,0.1c0,0.1,0,0.1,0,0.2c0,0,0,0.1,0,0.1c0,0.1,0,0.2,0.1,0.3c0,0,0,0,0,0c0,0,0,0,0,0c0,0.1,0.1,0.2,0.2,0.3
		c0,0,0,0,0,0c0,0,0,0,0.1,0c0.1,0.1,0.1,0.1,0.2,0.1c0,0,0.1,0,0.1,0c0.1,0,0.2,0.1,0.3,0.1c0.1,0,0.3,0,0.4-0.1
		c0.1,0,0.2-0.1,0.3-0.2l0.7-0.7c0,0,0,0,0,0l0.7-0.7c0,0,0.1-0.1,0.1-0.1c0.1-0.1,0.1-0.2,0.1-0.2c0,0,0,0,0,0c0,0,0,0,0-0.1
		c0-0.1,0-0.1,0-0.2c0,0,0,0,0,0c0,0,0,0,0-0.1c0,0,0,0,0-0.1c0,0,0-0.1,0-0.1c0,0,0-0.1,0-0.1c0,0,0,0,0-0.1c0,0,0,0,0,0
		c0,0,0,0,0,0c0,0,0,0,0,0c0,0,0-0.1-0.1-0.1c0,0-0.1-0.1-0.1-0.1c0,0,0,0,0,0c0,0,0,0,0,0c0,0,0,0-0.1-0.1c0,0-0.1-0.1-0.1-0.1
		c0,0,0,0,0,0c0,0,0,0,0,0c0,0,0,0-0.1,0c0,0-0.1,0-0.1,0c0,0-0.1,0-0.1,0c0,0,0,0-0.1,0c0,0,0,0,0,0L11,9l0.2-0.2
		c0.1,0,0.1,0,0.2,0.1c0,0,0.1,0,0.1,0c0.1,0,0.2,0.1,0.2,0.2c0,0,0,0,0.1,0c0.2,0.2,0.3,0.4,0.4,0.6c0,0.1,0,0.1,0,0.2
		c0,0,0,0.1,0,0.1c0,0.1,0,0.2,0,0.3c0,0,0,0.1,0,0.1c0,0.1-0.1,0.2-0.1,0.3c0,0,0,0,0,0c0,0.1-0.1,0.2-0.2,0.3l0,0
		c0,0-0.1,0.1-0.1,0.1L10.4,12.5z M13.4,9.5l-0.9,0.9c0,0,0,0,0-0.1c0-0.1,0-0.2,0-0.2c0,0,0,0,0,0c0-0.1,0-0.1,0-0.2
		c0,0,0-0.1,0-0.1l0.6-0.6c0.4-0.4,0.4-1,0-1.3c-0.4-0.4-1-0.4-1.3,0l-1.4,1.4c0,0-0.1,0.1-0.1,0.1c0,0.1-0.1,0.2-0.1,0.2
		c0,0,0,0,0,0c0,0.1,0,0.1,0,0.2c0,0,0,0.1,0,0.1c0,0,0,0.1,0,0.1c0,0,0,0.1,0,0.1c0,0,0,0.1,0,0.1c0,0,0,0,0,0c0,0,0,0,0,0
		c0,0,0.1,0.1,0.1,0.1c0,0,0,0.1,0.1,0.1c0,0,0.1,0.1,0.1,0.1c0,0,0,0,0.1,0.1c0,0,0.1,0,0.1,0.1c0,0,0.1,0,0.1,0c0.1,0,0.1,0,0.2,0
		c0,0,0,0,0.1,0l-0.4,0.4c0,0-0.1,0-0.1,0c-0.1,0-0.2-0.1-0.2-0.1c0,0,0,0-0.1-0.1c-0.1-0.1-0.1-0.1-0.2-0.2c0,0,0,0,0,0
		c-0.1-0.1-0.2-0.3-0.3-0.5c0,0,0-0.1,0-0.1c0-0.1,0-0.2,0-0.3c0,0,0-0.1,0-0.1c0-0.1,0-0.1,0-0.2c0,0,0-0.1,0-0.1
		c0-0.1,0-0.1,0.1-0.2c0-0.1,0-0.1,0.1-0.2c0,0,0-0.1,0.1-0.1c0-0.1,0.1-0.1,0.1-0.2c0,0,0,0,0,0c0,0,0.1-0.1,0.1-0.1l1.4-1.4
		c0.6-0.6,1.5-0.6,2,0C14,8,14,8.9,13.4,9.5z"/>
</g>
</svg>
